<?xml version="1.0" encoding="iso-8859-1"?>
<!-- Generator: Adobe Illustrator 16.0.0, SVG Export Plug-In . SVG Version: 6.00 Build 0)  -->
<!DOCTYPE svg PUBLIC "-//W3C//DTD SVG 1.1//EN" "http://www.w3.org/Graphics/SVG/1.1/DTD/svg11.dtd">
<svg version="1.1" id="Capa_1" xmlns="http://www.w3.org/2000/svg" xmlns:xlink="http://www.w3.org/1999/xlink" x="0px" y="0px"
	 width="30px" height="30px" viewBox="0 0 557.712 557.713" style="enable-background:new 0 0 557.712 557.713;fill:#ffedb8;"
	 xml:space="preserve">
<g>
	<path d="M378.846,313.524c-44.676-45.9-96.695-83.844-144.431-126.684c-4.896-4.284-12.24,0-11.016,5.508
		c-2.448,1.224-4.284,3.672-4.896,7.344c-3.672,14.076-6.732,28.764-9.18,44.064c-7.344,0.612-14.688,1.224-18.972,0.612
		c-55.08-2.448-108.936-7.956-164.016-3.06c-1.836,0-3.06,0.612-4.284,1.836c-2.448,0.612-5.508,1.836-6.732,4.896
		c-4.896,8.568-3.06,16.524-2.448,26.316c0.612,15.912-0.612,31.824-0.612,47.736c-1.224,17.136-4.284,50.796,13.464,61.812
		c0,0.612,0,0.612,0,1.225v1.224c0.612,3.061,3.672,6.12,6.732,6.732c29.988,6.12,63.648,0,94.248-1.836
		c25.704-1.225,53.244,3.06,78.948,3.672c2.448,15.3,6.12,29.376,10.404,43.452c0.612,2.447,2.448,3.672,3.672,4.896
		c1.836,7.344,10.404,14.076,19.584,9.792c56.916-24.479,94.859-80.784,139.535-121.176
		C384.355,326.988,383.743,318.421,378.846,313.524z"/>
	<path d="M187.291,415.729c-0.612-5.508-7.344-9.18-12.24-9.18c-17.748,0-55.08-5.508-62.424,15.912
		c-1.224,4.284,0,7.956,3.06,10.403l0,0c-9.18,8.568-7.344,28.765-7.956,40.393c-1.836,22.644-3.06,45.899-3.06,68.544
		c0,7.956,6.12,11.628,12.852,12.852c21.42,2.448,42.84,3.061,64.26,3.061c7.344,0,11.628-6.12,12.852-12.853
		C198.919,501.409,193.411,457.957,187.291,415.729z"/>
	<path d="M542.863,32.005c1.224-7.956-3.061-16.524-12.24-16.524C402.103,14.257,272.359-5.327,144.451,1.405
		C53.263,5.688,86.923,158.688,93.043,211.933c0.612,7.344,7.956,9.792,12.852,7.344c0.612,0.612,1.224,1.224,2.448,1.836
		c19.584,8.568,42.84,3.06,63.648,3.06c6.732,0,11.628-5.508,12.24-12.24c2.448-34.884-1.224-69.768-2.448-104.652
		c53.856,6.732,107.711,12.24,161.568,14.688c13.464,0.612,50.796,5.508,79.56,1.836c-5.508,53.244,2.448,112.608,4.284,163.404
		c3.06,82.62,6.731,165.24,8.567,247.859c0,7.345,5.509,11.629,12.24,12.24c23.256,1.836,46.512,0.612,69.769,0
		c4.896,9.18,23.256,7.344,24.479-6.731C558.775,371.665,519.607,201.529,542.863,32.005z"/>
</g>
<g>
</g>
<g>
</g>
<g>
</g>
<g>
</g>
<g>
</g>
<g>
</g>
<g>
</g>
<g>
</g>
<g>
</g>
<g>
</g>
<g>
</g>
<g>
</g>
<g>
</g>
<g>
</g>
<g>
</g>
</svg>
