<svg id="Capa_1" enable-background="new 0 0 533.876 533.876" height="35" viewBox="0 0 533.876 533.876" width="35" xmlns="http://www.w3.org/2000/svg" style="enable-background:new 0 0 299.021 299.021;fill:#ffedb8;"><g><path d="m533.876 217.93v240.87c0 41.397-33.679 75.076-75.076 75.076-19.101 0-37.302-7.179-51.252-20.216-8.415-7.864-8.862-21.061-.998-29.476s21.063-8.861 29.476-.998c6.197 5.791 14.285 8.98 22.775 8.98 18.399 0 33.367-14.968 33.367-33.367s-14.968-33.367-33.367-33.367h-383.725c-41.397-.001-75.076-33.68-75.076-75.077v-329.5c0-11.518 9.337-20.855 20.855-20.855s20.855 9.337 20.855 20.855c0 18.399 14.968 33.367 33.367 33.367h191.862c11.518 0 20.855 9.337 20.855 20.855s-9.337 20.855-20.855 20.855h-191.863c-11.979 0-23.309-2.82-33.367-7.83v262.255c0 18.399 14.968 33.367 33.367 33.367h383.724c11.982 0 23.308 2.836 33.367 7.85v-173.644c0-11.518 9.337-20.855 20.855-20.855s20.854 9.337 20.854 20.855zm-246.722 4.254 11.81-59.085c5.856-29.301 20.119-55.956 41.249-77.085l63.719-63.72c14.377-14.377 33.493-22.294 53.825-22.294 20.331 0 39.446 7.917 53.823 22.295 14.377 14.377 22.296 33.492 22.296 53.824s-7.918 39.447-22.296 53.824l-63.719 63.72c-21.13 21.128-47.784 35.391-77.085 41.248l-59.085 11.81c-1.36.271-2.729.405-4.087.405-5.476 0-10.796-2.159-14.747-6.108-4.929-4.93-7.07-11.998-5.703-18.834zm47.03-22.493 28.417-5.68c21.197-4.237 40.48-14.555 55.766-29.841l63.719-63.72c6.5-6.499 10.08-15.141 10.08-24.332s-3.58-17.833-10.078-24.331c-6.499-6.499-15.141-10.079-24.332-10.079s-17.833 3.58-24.331 10.079l-63.72 63.72c-15.286 15.285-25.605 34.568-29.841 55.766zm28.685 118.341c0-11.518-9.337-20.855-20.855-20.855h-196.032c-11.518 0-20.855 9.337-20.855 20.855s9.337 20.855 20.855 20.855h196.033c11.517-.001 20.854-9.338 20.854-20.855zm-147.025-57.35h-69.863c-11.518 0-20.855-9.337-20.855-20.855s9.337-20.855 20.855-20.855h69.863c11.518 0 20.855 9.337 20.855 20.855s-9.337 20.855-20.855 20.855z"/></g></svg>